<?xml version="1.0" encoding="UTF-8" standalone="no"?>
<!DOCTYPE svg PUBLIC "-//W3C//DTD SVG 1.1//EN"
 "http://www.w3.org/Graphics/SVG/1.1/DTD/svg11.dtd">
<!-- Generated by graphviz version 2.43.0 (0)
 -->
<!-- Title: dependency&#45;cruiser output Pages: 1 -->
<svg width="317pt" height="266pt"
 viewBox="0.00 0.00 317.00 266.00" xmlns="http://www.w3.org/2000/svg" xmlns:xlink="http://www.w3.org/1999/xlink">
<g id="graph0" class="graph" transform="scale(1 1) rotate(0) translate(4 262)">
<title>dependency&#45;cruiser output</title>
<polygon fill="white" stroke="transparent" points="-4,4 -4,-262 313,-262 313,4 -4,4"/>
<g id="clust1" class="cluster">
<title>cluster_orders</title>
<path fill="#ffffff" stroke="black" stroke-width="2" d="M20,-8C20,-8 289,-8 289,-8 295,-8 301,-14 301,-20 301,-20 301,-238 301,-238 301,-244 295,-250 289,-250 289,-250 20,-250 20,-250 14,-250 8,-244 8,-238 8,-238 8,-20 8,-20 8,-14 14,-8 20,-8"/>
<text text-anchor="middle" x="154.5" y="-238.8" font-family="Helvetica,sans-Serif" font-weight="bold" font-size="9.00">orders</text>
</g>
<!-- orders/api -->
<g id="node1" class="node">
<title>orders/api</title>
<g id="a_node1"><a xlink:href="orders/api" xlink:title="api">
<polygon fill="#ffffcc" stroke="black" points="293,-34 241,-34 239,-32 239,-16 291,-16 293,-18 293,-34"/>
<polyline fill="none" stroke="black" points="291,-32 239,-32 "/>
<polyline fill="none" stroke="black" points="291,-32 291,-16 "/>
<polyline fill="none" stroke="black" points="291,-32 293,-34 "/>
<text text-anchor="start" x="259" y="-22.8" font-family="Helvetica,sans-Serif" font-size="9.00">api</text>
</a>
</g>
</g>
<!-- orders/contexts -->
<g id="node2" class="node">
<title>orders/contexts</title>
<g id="a_node2"><a xlink:href="orders/contexts" xlink:title="contexts">
<polygon fill="#ffffcc" stroke="black" points="140,-122 86,-122 84,-120 84,-104 138,-104 140,-106 140,-122"/>
<polyline fill="none" stroke="black" points="138,-120 84,-120 "/>
<polyline fill="none" stroke="black" points="138,-120 138,-104 "/>
<polyline fill="none" stroke="black" points="138,-120 140,-122 "/>
<text text-anchor="start" x="92" y="-110.8" font-family="Helvetica,sans-Serif" font-size="9.00">contexts</text>
</a>
</g>
</g>
<!-- orders/types -->
<g id="node3" class="node">
<title>orders/types</title>
<g id="a_node3"><a xlink:href="orders/types" xlink:title="types">
<polygon fill="#ffffcc" stroke="black" points="293,-125 241,-125 239,-123 239,-107 291,-107 293,-109 293,-125"/>
<polyline fill="none" stroke="black" points="291,-123 239,-123 "/>
<polyline fill="none" stroke="black" points="291,-123 291,-107 "/>
<polyline fill="none" stroke="black" points="291,-123 293,-125 "/>
<text text-anchor="start" x="253.5" y="-113.8" font-family="Helvetica,sans-Serif" font-size="9.00">types</text>
</a>
</g>
</g>
<!-- orders/contexts&#45;&gt;orders/types -->
<g id="edge1" class="edge">
<title>orders/contexts&#45;&gt;orders/types</title>
<path fill="none" stroke="#000000" stroke-width="2" stroke-opacity="0.200000" d="M140.42,-111.84C163.32,-111.09 196.81,-110.51 226,-112 228.04,-112.1 230.14,-112.24 232.25,-112.4"/>
<polygon fill="#000000" fill-opacity="0.200000" stroke="#000000" stroke-width="2" stroke-opacity="0.200000" points="232.44,-114.52 238.59,-112.92 232.79,-110.33 232.44,-114.52"/>
</g>
<!-- orders/drivers -->
<g id="node4" class="node">
<title>orders/drivers</title>
<g id="a_node4"><a xlink:href="orders/drivers" xlink:title="drivers">
<polygon fill="#ffffcc" stroke="black" points="70,-202 18,-202 16,-200 16,-184 68,-184 70,-186 70,-202"/>
<polyline fill="none" stroke="black" points="68,-200 16,-200 "/>
<polyline fill="none" stroke="black" points="68,-200 68,-184 "/>
<polyline fill="none" stroke="black" points="68,-200 70,-202 "/>
<text text-anchor="start" x="27.5" y="-190.8" font-family="Helvetica,sans-Serif" font-size="9.00">drivers</text>
</a>
</g>
</g>
<!-- orders/drivers&#45;&gt;orders/types -->
<g id="edge2" class="edge">
<title>orders/drivers&#45;&gt;orders/types</title>
<path fill="none" stroke="#000000" stroke-width="2" stroke-opacity="0.200000" d="M62.67,-202.06C97.91,-217.71 175.23,-245.04 226,-211 252.71,-193.09 261.14,-153.27 263.79,-131.3"/>
<polygon fill="#000000" fill-opacity="0.200000" stroke="#000000" stroke-width="2" stroke-opacity="0.200000" points="265.91,-131.28 264.44,-125.09 261.73,-130.84 265.91,-131.28"/>
</g>
<!-- orders/useCases -->
<g id="node5" class="node">
<title>orders/useCases</title>
<g id="a_node5"><a xlink:href="orders/useCases" xlink:title="useCases">
<polygon fill="#ffffcc" stroke="black" points="141,-181 85,-181 83,-179 83,-163 139,-163 141,-165 141,-181"/>
<polyline fill="none" stroke="black" points="139,-179 83,-179 "/>
<polyline fill="none" stroke="black" points="139,-179 139,-163 "/>
<polyline fill="none" stroke="black" points="139,-179 141,-181 "/>
<text text-anchor="start" x="91" y="-169.8" font-family="Helvetica,sans-Serif" font-size="9.00">useCases</text>
</a>
</g>
</g>
<!-- orders/drivers&#45;&gt;orders/useCases -->
<g id="edge3" class="edge">
<title>orders/drivers&#45;&gt;orders/useCases</title>
<path fill="none" stroke="#000000" stroke-width="2" stroke-opacity="0.200000" d="M70.1,-184.82C72.28,-184.14 74.51,-183.44 76.75,-182.74"/>
<polygon fill="#000000" fill-opacity="0.200000" stroke="#000000" stroke-width="2" stroke-opacity="0.200000" points="77.55,-184.69 82.65,-180.89 76.29,-180.68 77.55,-184.69"/>
</g>
<!-- orders/useCases&#45;&gt;orders/types -->
<g id="edge14" class="edge">
<title>orders/useCases&#45;&gt;orders/types</title>
<path fill="none" stroke="#000000" stroke-width="2" stroke-opacity="0.200000" d="M121.8,-181.06C129.51,-188.3 141.42,-197.89 154,-202 184.42,-211.94 199.1,-219.34 226,-202 250.37,-186.29 259.68,-151.24 263.11,-131.07"/>
<polygon fill="#000000" fill-opacity="0.200000" stroke="#000000" stroke-width="2" stroke-opacity="0.200000" points="265.19,-131.34 264.03,-125.09 261.04,-130.7 265.19,-131.34"/>
</g>
<!-- orders/effects -->
<g id="node6" class="node">
<title>orders/effects</title>
<g id="a_node6"><a xlink:href="orders/effects" xlink:title="effects">
<polygon fill="#ffffcc" stroke="black" points="217,-166 165,-166 163,-164 163,-148 215,-148 217,-150 217,-166"/>
<polyline fill="none" stroke="black" points="215,-164 163,-164 "/>
<polyline fill="none" stroke="black" points="215,-164 215,-148 "/>
<polyline fill="none" stroke="black" points="215,-164 217,-166 "/>
<text text-anchor="start" x="174.5" y="-154.8" font-family="Helvetica,sans-Serif" font-size="9.00">effects</text>
</a>
</g>
</g>
<!-- orders/useCases&#45;&gt;orders/effects -->
<g id="edge15" class="edge">
<title>orders/useCases&#45;&gt;orders/effects</title>
<path fill="none" stroke="#000000" stroke-width="2" stroke-opacity="0.200000" d="M141.3,-166.41C146.4,-165.41 151.74,-164.35 156.93,-163.33"/>
<polygon fill="#000000" fill-opacity="0.200000" stroke="#000000" stroke-width="2" stroke-opacity="0.200000" points="157.46,-165.37 162.94,-162.14 156.65,-161.25 157.46,-165.37"/>
</g>
<!-- orders/selectors -->
<g id="node9" class="node">
<title>orders/selectors</title>
<g id="a_node9"><a xlink:href="orders/selectors" xlink:title="selectors">
<polygon fill="#ffffcc" stroke="black" points="218,-136 164,-136 162,-134 162,-118 216,-118 218,-120 218,-136"/>
<polyline fill="none" stroke="black" points="216,-134 162,-134 "/>
<polyline fill="none" stroke="black" points="216,-134 216,-118 "/>
<polyline fill="none" stroke="black" points="216,-134 218,-136 "/>
<text text-anchor="start" x="170" y="-124.8" font-family="Helvetica,sans-Serif" font-size="9.00">selectors</text>
</a>
</g>
</g>
<!-- orders/useCases&#45;&gt;orders/selectors -->
<g id="edge13" class="edge">
<title>orders/useCases&#45;&gt;orders/selectors</title>
<path fill="none" stroke="#000000" stroke-width="2" stroke-opacity="0.200000" d="M124.02,-162.87C132.02,-156.52 143.27,-148.12 154,-142 155.95,-140.89 158,-139.8 160.09,-138.76"/>
<polygon fill="#000000" fill-opacity="0.200000" stroke="#000000" stroke-width="2" stroke-opacity="0.200000" points="161.15,-140.59 165.67,-136.12 159.35,-136.79 161.15,-140.59"/>
</g>
<!-- orders/transactions -->
<g id="node11" class="node">
<title>orders/transactions</title>
<g id="a_node11"><a xlink:href="orders/transactions" xlink:title="transactions">
<polygon fill="#ffffcc" stroke="black" points="226,-196 156,-196 154,-194 154,-178 224,-178 226,-180 226,-196"/>
<polyline fill="none" stroke="black" points="224,-194 154,-194 "/>
<polyline fill="none" stroke="black" points="224,-194 224,-178 "/>
<polyline fill="none" stroke="black" points="224,-194 226,-196 "/>
<text text-anchor="start" x="162" y="-184.8" font-family="Helvetica,sans-Serif" font-size="9.00">transactions</text>
</a>
</g>
</g>
<!-- orders/useCases&#45;&gt;orders/transactions -->
<g id="edge16" class="edge">
<title>orders/useCases&#45;&gt;orders/transactions</title>
<path fill="none" stroke="#000000" stroke-width="2" stroke-opacity="0.200000" d="M141.3,-177.59C143.5,-178.02 145.74,-178.46 148,-178.91"/>
<polygon fill="#000000" fill-opacity="0.200000" stroke="#000000" stroke-width="2" stroke-opacity="0.200000" points="147.69,-180.99 153.99,-180.09 148.51,-176.87 147.69,-180.99"/>
</g>
<!-- orders/effects&#45;&gt;orders/types -->
<g id="edge4" class="edge">
<title>orders/effects&#45;&gt;orders/types</title>
<path fill="none" stroke="#000000" stroke-width="2" stroke-opacity="0.200000" d="M213.88,-147.91C217.98,-146.08 222.16,-144.08 226,-142 233.27,-138.06 240.91,-133.16 247.48,-128.67"/>
<polygon fill="#000000" fill-opacity="0.200000" stroke="#000000" stroke-width="2" stroke-opacity="0.200000" points="248.99,-130.18 252.72,-125.03 246.59,-126.73 248.99,-130.18"/>
</g>
<!-- orders/gateways -->
<g id="node7" class="node">
<title>orders/gateways</title>
<g id="a_node7"><a xlink:href="orders/gateways" xlink:title="gateways">
<polygon fill="#ffffcc" stroke="black" points="219.5,-34 162.5,-34 160.5,-32 160.5,-16 217.5,-16 219.5,-18 219.5,-34"/>
<polyline fill="none" stroke="black" points="217.5,-32 160.5,-32 "/>
<polyline fill="none" stroke="black" points="217.5,-32 217.5,-16 "/>
<polyline fill="none" stroke="black" points="217.5,-32 219.5,-34 "/>
<text text-anchor="start" x="168.5" y="-22.8" font-family="Helvetica,sans-Serif" font-size="9.00">gateways</text>
</a>
</g>
</g>
<!-- orders/gateways&#45;&gt;orders/api -->
<g id="edge6" class="edge">
<title>orders/gateways&#45;&gt;orders/api</title>
<path fill="none" stroke="#000000" stroke-width="2" stroke-opacity="0.200000" d="M219.82,-25C223.97,-25 228.26,-25 232.47,-25"/>
<polygon fill="#000000" fill-opacity="0.200000" stroke="#000000" stroke-width="2" stroke-opacity="0.200000" points="232.55,-27.1 238.55,-25 232.55,-22.9 232.55,-27.1"/>
</g>
<!-- orders/gateways&#45;&gt;orders/types -->
<g id="edge5" class="edge">
<title>orders/gateways&#45;&gt;orders/types</title>
<path fill="none" stroke="#000000" stroke-width="2" stroke-opacity="0.200000" d="M217.82,-34.13C220.78,-35.8 223.58,-37.74 226,-40 244,-56.79 255.05,-83.75 260.6,-100.64"/>
<polygon fill="#000000" fill-opacity="0.200000" stroke="#000000" stroke-width="2" stroke-opacity="0.200000" points="258.73,-101.69 262.52,-106.79 262.73,-100.43 258.73,-101.69"/>
</g>
<!-- orders/models -->
<g id="node8" class="node">
<title>orders/models</title>
<g id="a_node8"><a xlink:href="orders/models" xlink:title="models">
<polygon fill="#ffffcc" stroke="black" points="217,-64 165,-64 163,-62 163,-46 215,-46 217,-48 217,-64"/>
<polyline fill="none" stroke="black" points="215,-62 163,-62 "/>
<polyline fill="none" stroke="black" points="215,-62 215,-46 "/>
<polyline fill="none" stroke="black" points="215,-62 217,-64 "/>
<text text-anchor="start" x="173.5" y="-52.8" font-family="Helvetica,sans-Serif" font-size="9.00">models</text>
</a>
</g>
</g>
<!-- orders/models&#45;&gt;orders/types -->
<g id="edge7" class="edge">
<title>orders/models&#45;&gt;orders/types</title>
<path fill="none" stroke="#000000" stroke-width="2" stroke-opacity="0.200000" d="M211.73,-64.11C216.62,-66.67 221.66,-69.67 226,-73 236.93,-81.39 247.31,-93.08 254.6,-102.15"/>
<polygon fill="#000000" fill-opacity="0.200000" stroke="#000000" stroke-width="2" stroke-opacity="0.200000" points="252.97,-103.47 258.33,-106.89 256.27,-100.87 252.97,-103.47"/>
</g>
<!-- orders/selectors&#45;&gt;orders/types -->
<g id="edge8" class="edge">
<title>orders/selectors&#45;&gt;orders/types</title>
<path fill="none" stroke="#000000" stroke-width="2" stroke-opacity="0.200000" d="M218.13,-122.97C222.89,-122.26 227.88,-121.52 232.76,-120.79"/>
<polygon fill="#000000" fill-opacity="0.200000" stroke="#000000" stroke-width="2" stroke-opacity="0.200000" points="233.23,-122.85 238.86,-119.89 232.61,-118.69 233.23,-122.85"/>
</g>
<!-- orders/stores -->
<g id="node10" class="node">
<title>orders/stores</title>
<g id="a_node10"><a xlink:href="orders/stores" xlink:title="stores">
<polygon fill="#ffffcc" stroke="black" points="139,-71 87,-71 85,-69 85,-53 137,-53 139,-55 139,-71"/>
<polyline fill="none" stroke="black" points="137,-69 85,-69 "/>
<polyline fill="none" stroke="black" points="137,-69 137,-53 "/>
<polyline fill="none" stroke="black" points="137,-69 139,-71 "/>
<text text-anchor="start" x="98" y="-59.8" font-family="Helvetica,sans-Serif" font-size="9.00">stores</text>
</a>
</g>
</g>
<!-- orders/stores&#45;&gt;orders/types -->
<g id="edge11" class="edge">
<title>orders/stores&#45;&gt;orders/types</title>
<path fill="none" stroke="#000000" stroke-width="2" stroke-opacity="0.200000" d="M139.25,-67.2C170.11,-73.42 218.16,-83.42 226,-87 234.68,-90.97 243.31,-97.09 250.23,-102.69"/>
<polygon fill="#000000" fill-opacity="0.200000" stroke="#000000" stroke-width="2" stroke-opacity="0.200000" points="249.22,-104.59 255.17,-106.83 251.92,-101.37 249.22,-104.59"/>
</g>
<!-- orders/stores&#45;&gt;orders/gateways -->
<g id="edge9" class="edge">
<title>orders/stores&#45;&gt;orders/gateways</title>
<path fill="none" stroke="#000000" stroke-width="2" stroke-opacity="0.200000" d="M129.19,-52.89C136.66,-48.79 145.7,-43.99 154,-40 156.35,-38.87 158.8,-37.73 161.27,-36.62"/>
<polygon fill="#000000" fill-opacity="0.200000" stroke="#000000" stroke-width="2" stroke-opacity="0.200000" points="162.39,-38.42 167.02,-34.07 160.69,-34.58 162.39,-38.42"/>
</g>
<!-- orders/stores&#45;&gt;orders/models -->
<g id="edge10" class="edge">
<title>orders/stores&#45;&gt;orders/models</title>
<path fill="none" stroke="#000000" stroke-width="2" stroke-opacity="0.200000" d="M139.15,-59.59C144.77,-59.07 150.76,-58.52 156.58,-57.99"/>
<polygon fill="#000000" fill-opacity="0.200000" stroke="#000000" stroke-width="2" stroke-opacity="0.200000" points="157.01,-60.05 162.8,-57.41 156.63,-55.87 157.01,-60.05"/>
</g>
<!-- orders/transactions&#45;&gt;orders/types -->
<g id="edge12" class="edge">
<title>orders/transactions&#45;&gt;orders/types</title>
<path fill="none" stroke="#000000" stroke-width="2" stroke-opacity="0.200000" d="M216.82,-177.93C220.08,-176.23 223.23,-174.25 226,-172 239.89,-160.68 250.98,-143.19 257.73,-130.77"/>
<polygon fill="#000000" fill-opacity="0.200000" stroke="#000000" stroke-width="2" stroke-opacity="0.200000" points="259.76,-131.42 260.69,-125.13 256.04,-129.47 259.76,-131.42"/>
</g>
<!-- orders/views -->
<g id="node12" class="node">
<title>orders/views</title>
<g id="a_node12"><a xlink:href="orders/views" xlink:title="views">
<polygon fill="#ffffcc" stroke="black" points="70,-122 18,-122 16,-120 16,-104 68,-104 70,-106 70,-122"/>
<polyline fill="none" stroke="black" points="68,-120 16,-120 "/>
<polyline fill="none" stroke="black" points="68,-120 68,-104 "/>
<polyline fill="none" stroke="black" points="68,-120 70,-122 "/>
<text text-anchor="start" x="30.5" y="-110.8" font-family="Helvetica,sans-Serif" font-size="9.00">views</text>
</a>
</g>
</g>
<!-- orders/views&#45;&gt;orders/contexts -->
<g id="edge17" class="edge">
<title>orders/views&#45;&gt;orders/contexts</title>
<path fill="none" stroke="#000000" stroke-width="2" stroke-opacity="0.200000" d="M70.1,-113C72.66,-113 75.28,-113 77.9,-113"/>
<polygon fill="#000000" fill-opacity="0.200000" stroke="#000000" stroke-width="2" stroke-opacity="0.200000" points="77.98,-115.1 83.98,-113 77.98,-110.9 77.98,-115.1"/>
</g>
<!-- orders/views&#45;&gt;orders/types -->
<g id="edge19" class="edge">
<title>orders/views&#45;&gt;orders/types</title>
<path fill="none" stroke="#000000" stroke-width="2" stroke-opacity="0.200000" d="M63.43,-103.92C69.56,-101.5 76.44,-99.22 83,-98 134.94,-88.36 196.24,-98.85 232.8,-107.38"/>
<polygon fill="#000000" fill-opacity="0.200000" stroke="#000000" stroke-width="2" stroke-opacity="0.200000" points="232.56,-109.48 238.88,-108.84 233.54,-105.4 232.56,-109.48"/>
</g>
<!-- orders/views&#45;&gt;orders/useCases -->
<g id="edge20" class="edge">
<title>orders/views&#45;&gt;orders/useCases</title>
<path fill="none" stroke="#000000" stroke-width="2" stroke-opacity="0.200000" d="M54.47,-122.22C65.52,-131.95 83.04,-147.38 95.65,-158.48"/>
<polygon fill="#000000" fill-opacity="0.200000" stroke="#000000" stroke-width="2" stroke-opacity="0.200000" points="94.49,-160.26 100.38,-162.65 97.27,-157.11 94.49,-160.26"/>
</g>
<!-- orders/views&#45;&gt;orders/selectors -->
<g id="edge18" class="edge">
<title>orders/views&#45;&gt;orders/selectors</title>
<path fill="none" stroke="#000000" stroke-width="2" stroke-opacity="0.200000" d="M63.43,-122.08C69.56,-124.5 76.44,-126.78 83,-128 107.04,-132.46 134.69,-132.02 155.71,-130.57"/>
<polygon fill="#000000" fill-opacity="0.200000" stroke="#000000" stroke-width="2" stroke-opacity="0.200000" points="155.91,-132.66 161.74,-130.11 155.6,-128.47 155.91,-132.66"/>
</g>
<!-- orders/views&#45;&gt;orders/stores -->
<g id="edge21" class="edge">
<title>orders/views&#45;&gt;orders/stores</title>
<path fill="none" stroke="#000000" stroke-width="2" stroke-opacity="0.200000" d="M55.98,-103.88C66.65,-95.76 82.37,-83.79 94.28,-74.73"/>
<polygon fill="#000000" fill-opacity="0.200000" stroke="#000000" stroke-width="2" stroke-opacity="0.200000" points="95.62,-76.34 99.13,-71.04 93.08,-73 95.62,-76.34"/>
</g>
</g>
</svg>
